<svg xmlns="http://www.w3.org/2000/svg" viewBox="0 0 64 64" fill="none">
  <!-- Shield body -->
  <path d="M32 4 L56 14 L56 34 C56 47 44 57 32 61 C20 57 8 47 8 34 L8 14 Z"
        fill="#0d1117" stroke="#58a6ff" stroke-width="2.5"/>
  <!-- Shield inner highlight -->
  <path d="M32 10 L50 18 L50 34 C50 44 42 52 32 56 C22 52 14 44 14 34 L14 18 Z"
        fill="#161b22"/>
  <!-- Map pin dot -->
  <circle cx="32" cy="28" r="5" fill="#58a6ff"/>
  <!-- Map pin stem -->
  <path d="M32 33 Q27 40 32 46" stroke="#58a6ff" stroke-width="2.5" stroke-linecap="round" fill="none"/>
  <!-- Ripple rings -->
  <circle cx="32" cy="28" r="9" stroke="#58a6ff" stroke-width="1.2" stroke-dasharray="3 2" opacity="0.5"/>
  <circle cx="32" cy="28" r="13" stroke="#58a6ff" stroke-width="0.8" stroke-dasharray="2 3" opacity="0.25"/>
  <!-- Critical red accent top bar -->
  <rect x="8" y="4" width="48" height="3" rx="1.5" fill="#da3633" opacity="0.8"/>
</svg>
